<?xml version="1.0" encoding="UTF-8" standalone="no"?>
<svg
   fill="#000000"
   viewBox="0 0 50 50"
   width="250px"
   height="250px"
   version="1.1"
   id="svg4"
   sodipodi:docname="obs-elements.svg.svg"
   inkscape:version="1.2.1 (9c6d41e410, 2022-07-14)"
   xmlns:inkscape="http://www.inkscape.org/namespaces/inkscape"
   xmlns:sodipodi="http://sodipodi.sourceforge.net/DTD/sodipodi-0.dtd"
   xmlns="http://www.w3.org/2000/svg"
   xmlns:svg="http://www.w3.org/2000/svg">
  <defs
     id="defs8" />
  <sodipodi:namedview
     id="namedview6"
     pagecolor="#ffffff"
     bordercolor="#000000"
     borderopacity="0.25"
     inkscape:showpageshadow="2"
     inkscape:pageopacity="0.0"
     inkscape:pagecheckerboard="0"
     inkscape:deskcolor="#d1d1d1"
     showgrid="false"
     inkscape:zoom="1.756"
     inkscape:cx="50.683371"
     inkscape:cy="171.98178"
     inkscape:window-width="1920"
     inkscape:window-height="1026"
     inkscape:window-x="0"
     inkscape:window-y="0"
     inkscape:window-maximized="1"
     inkscape:current-layer="svg4" />
  <path
     d="m 21.658849,9.7211433 c -10.790378,0 -19.5678225,8.7774447 -19.5678225,19.5678217 0,10.790377 8.7774445,19.567821 19.5678225,19.567821 10.790377,0 19.567821,-8.777444 19.567821,-19.567821 0,-10.790377 -8.777444,-19.5678217 -19.567821,-19.5678217 z m 15.96479,27.5421347 c 1.077931,-3.164032 -0.111452,-6.831722 -3.034714,-8.703427 -3.423518,-2.191596 -7.975164,-1.191936 -10.16676,2.231582 v 0 c -1.577336,2.463844 -1.49396,5.507917 -0.0519,7.839891 -0.858432,1.323805 -2.015486,2.48171 -3.462654,3.344396 -4.594184,2.739495 -10.512174,1.660712 -13.8038217,-2.364304 -0.158245,-0.222903 -0.312235,-0.448358 -0.46027,-0.678067 2.22903,2.784586 6.2991377,3.584314 9.4997527,1.778119 3.540074,-1.997619 4.790713,-6.487158 2.793094,-10.027232 v 0 c -1.376554,-2.439172 -3.936535,-3.791053 -6.553519,-3.742559 -0.84567,-1.524588 -1.329761,-3.277185 -1.329761,-5.144635 0,-4.663948 3.009191,-8.608991 7.187346,-10.039143 0.306279,-0.05955 0.619364,-0.09869 0.930748,-0.142931 -2.825423,1.027736 -4.847715,3.729797 -4.847715,6.910844 0,4.065003 3.295051,7.360054 7.360053,7.360054 2.704613,0 5.06126,-1.462482 6.340825,-3.636212 1.869152,0.01276 3.757873,0.50536 5.46793,1.552664 4.301518,2.632297 6.102608,7.907101 4.585676,12.51745 -0.137825,0.322444 -0.298622,0.632126 -0.454313,0.94351 z"
     id="path2"
     style="stroke-width:0.850775" />
  <text
     xml:space="preserve"
     style="font-weight:300;font-size:30.2813px;font-family:Oswald;-inkscape-font-specification:'Oswald Light';text-align:center;text-anchor:middle;fill:#ffffff;stroke:#000000;stroke-width:0.923533;stroke-linecap:round;stroke-linejoin:miter;stroke-dasharray:none;paint-order:markers stroke fill"
     x="36.704945"
     y="25.482519"
     id="text291"
     transform="scale(0.92193328,1.0846772)"><tspan
       sodipodi:role="line"
       id="tspan289"
       style="fill:#ffffff;stroke:#000000;stroke-width:0.923533;stroke-linejoin:miter;stroke-dasharray:none;paint-order:markers stroke fill"
       x="36.704945"
       y="25.482519">ELT</tspan></text>
</svg>
